<svg xmlns="http://www.w3.org/2000/svg" viewBox="0 0 100 100">
  <defs>
    <linearGradient id="grad" x1="0%" y1="0%" x2="100%" y2="100%">
      <stop offset="0%" style="stop-color:#ef4444;stop-opacity:1" />
      <stop offset="100%" style="stop-color:#dc2626;stop-opacity:1" />
    </linearGradient>
  </defs>
  
  <!-- Shield background -->
  <path d="M50 10 L80 20 L80 50 Q80 70 50 90 Q20 70 20 50 L20 20 Z" fill="url(#grad)"/>
  
  <!-- White cross/plus symbol -->
  <rect x="45" y="30" width="10" height="40" fill="white" rx="2"/>
  <rect x="30" y="45" width="40" height="10" fill="white" rx="2"/>
  
  <!-- Heart symbol overlay -->
  <path d="M50 75 C45 70 35 63 35 55 C35 50 37 47 41 47 C44 47 47 49 50 52 C53 49 56 47 59 47 C63 47 65 50 65 55 C65 63 55 70 50 75 Z" fill="white" opacity="0.9"/>
</svg>
